999
FreeCAD v1.1 20260725 (Git shallow)
  0
SECTION
  2
HEADER
  9
$ACADVER
  1
AC1014
  9
$ACADMAINTVER
 70
     9
  9
$DWGCODEPAGE
  3
ANSI_1252
  9
$TEXTSTYLE
  7
STANDARD
  9
$DIMSTYLE
  2
STANDARD
  9
$DIMTXSTY
  7
STANDARD
  9
$CMLSTYLE
  2
STANDARD
  9
$LUNITS
 70
2
  9
$INSUNITS
 70
4
  9
$PEXTMAX
 10
50
 20
50
 30
50
  9
$PEXTMIN
 10
0
 20
0
 30
0
  9
$HANDSEED
  5
FFFF
  0
ENDSEC
  0
SECTION
  2
CLASSES
  0
CLASS
  1
ACDBDICTIONARYWDFLT
  2
AcDbDictionaryWithDefault
  3
ObjectDBX Classes
 90
        0
280
     0
281
     0
  0
CLASS
  1
XRECORD
  2
AcDbXrecord
  3
ObjectDBX Classes
 90
        0
280
     0
281
     0
  0
CLASS
  1
LWPOLYLINE
  2
AcDbPolyline
  3
ObjectDBX Classes
 90
        0
280
     0
281
     1
  0
ENDSEC
  0
SECTION
  2
TABLES
  0
TABLE
  2
VPORT
  5
20
330
0
100
AcDbSymbolTable
 70
     1
  0
VPORT
  5
21
330
20
100
AcDbSymbolTableRecord
100
AcDbViewportTableRecord
  2
*ACTIVE
 70
     0
  0
ENDTAB
  0
TABLE
  2
LTYPE
  5
22
330
0
100
AcDbSymbolTable
 70
     1
  0
LTYPE
  5
23
330
21
100
AcDbSymbolTableRecord
100
AcDbLinetypeTableRecord
  2
BYBLOCK
 70
     0
  3

 72
    65
 73
     0
 40
0.0
  0
LTYPE
  5
24
330
21
100
AcDbSymbolTableRecord
100
AcDbLinetypeTableRecord
  2
BYLAYER
 70
     0
  3

 72
    65
 73
     0
 40
0.0
  0
LTYPE
  5
25
330
21
100
AcDbSymbolTableRecord
100
AcDbLinetypeTableRecord
  2
CONTINUOUS
 70
     0
  3
Solid line
 72
    65
 73
     0
 40
0.0
  0
ENDTAB
  0
TABLE
  2
LAYER
  5
A4C
330
0
100
AcDbSymbolTable
 70
3
  0
LAYER
  5
A4D
330
A4C
100
AcDbSymbolTableRecord
100
AcDbLayerTableRecord
  2
0
 70
   0
 62
   7
  6
CONTINUOUS
  0
LAYER
  5
A4E
330
A4C
100
AcDbSymbolTableRecord
100
AcDbLayerTableRecord
  2
none
 70
    0
 62
    7
  6
CONTINUOUS
  0
LAYER
  5
A4F
330
A4C
100
AcDbSymbolTableRecord
100
AcDbLayerTableRecord
  2
Sketch
 70
    0
 62
    7
  6
CONTINUOUS
  0
ENDTAB
  0
TABLE
  2
STYLE
  5
70
330
0
100
AcDbSymbolTable
 70
     2
  0
STYLE
  5
71
330
70
100
AcDbSymbolTableRecord
100
AcDbTextStyleTableRecord
  2
STANDARD
 70
     0
 40
0.0
 41
1.0
 50
0.0
 71
     0
 42
2.5
  3
arial.ttf
  4

  0
STYLE
  5
72
330
70
100
AcDbSymbolTableRecord
100
AcDbTextStyleTableRecord
  2
ANNOTATIVE
 70
     0
 40
0.0
 41
1.0
 50
0.0
 71
     0
 42
2.5
  3
arial.ttf
  4

  0
ENDTAB
  0
TABLE
  2
VIEW
  5
73
330
0
100
AcDbSymbolTable
 70
     0
  0
ENDTAB
  0
TABLE
  2
UCS
  5
74
330
0
100
AcDbSymbolTable
 70
     0
  0
ENDTAB
  0
TABLE
  2
APPID
  5
75
330
0
100
AcDbSymbolTable
 70
     2
  0
APPID
  5
76
330
75
100
AcDbSymbolTableRecord
100
AcDbRegAppTableRecord
  2
ACAD
 70
     0
  0
APPID
  5
77
330
75
100
AcDbSymbolTableRecord
100
AcDbRegAppTableRecord
  2
ACADANNOTATIVE
 70
     0
  0
ENDTAB
  0
TABLE
  2
DIMSTYLE
  5
78
330
0
100
AcDbSymbolTable
 70
     2
  0
DIMSTYLE
105
79
330
78
100
AcDbSymbolTableRecord
100
AcDbDimStyleTableRecord
  2
STANDARD
 70
     0
  3

  4

  5

  6

  7

 40
0.0
 41
2.5
 42
0.625
 43
3.75
 44
1.25
 45
0.0
 46
0.0
 47
0.0
 48
0.0
140
2.5
141
2.5
142
0.0
143
0.03937007874016
144
1.0
145
0.0
146
1.0
147
0.625
 71
     0
 72
     0
 73
     0
 74
     0
 75
     0
 76
     0
 77
     1
 78
     8
170
     0
171
     3
172
     1
173
     0
174
     0
175
     0
176
     0
177
     0
178
     0
270
     2
271
     2
272
     2
273
     2
274
     3
340
71
275
     0
280
     0
281
     0
282
     0
283
     0
284
     8
285
     0
286
     0
287
     3
288
     0
  0
ENDTAB
  0
TABLE
  2
BLOCK_RECORD
  5
A01
330
0
100
AcDbSymbolTable
  70
5
  0
BLOCK_RECORD
  5
A02
330
A01
100
AcDbSymbolTableRecord
100
AcDbBlockTableRecord
  2
*MODEL_SPACE
  0
BLOCK_RECORD
  5
A03
330
A01
100
AcDbSymbolTableRecord
100
AcDbBlockTableRecord
  2
*PAPER_SPACE
  0
ENDTAB
  0
ENDSEC
  0
SECTION
  2
BLOCKS
  0
BLOCK
  5
A04
330
A02
100
AcDbEntity
  8
0
100
AcDbBlockBegin
  2
*MODEL_SPACE
 70
   0
 10
0
 20
0
 30
0
  3
*MODEL_SPACE
  1
 
  0
ENDBLK
  5
A05
330
A02
100
AcDbEntity
  8
0
100
AcDbBlockEnd
  0
BLOCK
  5
A06
330
A03
100
AcDbEntity
 67
1
  8
0
100
AcDbBlockBegin
  2
*PAPER_SPACE
 70
   0
 10
0
 20
0
 30
0
  3
*PAPER_SPACE
  1
 
  0
ENDBLK
  5
A07
330
A03
100
AcDbEntity
 67
    1
  8
0
100
AcDbBlockEnd
  0
ENDSEC
  0
SECTION
  2
ENTITIES
  0
LINE
  5
A08
330
A02
100
AcDbEntity
  8
Sketch
100
AcDbLine
 10
-28.401699748
 20
22.381929985
 30
0.000000000
 11
-28.401699748
 21
4.831929985
 31
0.000000000
  0
ARC
  5
A09
330
A02
100
AcDbEntity
  8
Sketch
100
AcDbCircle
 10
-26.401699748
 20
4.831929985
 30
0.000000000
 40
2.000000000
100
AcDbArc
 50
180.000000000
 51
-90.000000000
  0
LINE
  5
A0A
330
A02
100
AcDbEntity
  8
Sketch
100
AcDbLine
 10
-26.401699748
 20
2.831929985
 30
0.000000000
 11
-14.301699748
 21
2.831929985
 31
0.000000000
  0
LINE
  5
A0B
330
A02
100
AcDbEntity
  8
Sketch
100
AcDbLine
 10
-14.301699748
 20
2.831929985
 30
0.000000000
 11
-14.301699748
 21
-0.418070015
 31
0.000000000
  0
ARC
  5
A0C
330
A02
100
AcDbEntity
  8
Sketch
100
AcDbCircle
 10
-13.801699748
 20
-0.418070015
 30
0.000000000
 40
0.500000000
100
AcDbArc
 50
180.000000000
 51
-90.000000000
  0
LINE
  5
A0D
330
A02
100
AcDbEntity
  8
Sketch
100
AcDbLine
 10
-13.801699748
 20
-0.918070015
 30
0.000000000
 11
-13.601699748
 21
-0.918070015
 31
0.000000000
  0
ARC
  5
A0E
330
A02
100
AcDbEntity
  8
Sketch
100
AcDbCircle
 10
-13.601699748
 20
-0.418070015
 30
0.000000000
 40
0.500000000
100
AcDbArc
 50
-90.000000000
 51
-0.000000000
  0
LINE
  5
A0F
330
A02
100
AcDbEntity
  8
Sketch
100
AcDbLine
 10
-13.101699748
 20
-0.418070015
 30
0.000000000
 11
-13.101699748
 21
2.831929985
 31
0.000000000
  0
LINE
  5
A10
330
A02
100
AcDbEntity
  8
Sketch
100
AcDbLine
 10
-13.101699748
 20
2.831929985
 30
0.000000000
 11
7.648300252
 21
2.831929985
 31
0.000000000
  0
LINE
  5
A11
330
A02
100
AcDbEntity
  8
Sketch
100
AcDbLine
 10
7.648300252
 20
2.831929985
 30
0.000000000
 11
7.648300252
 21
-0.418070015
 31
0.000000000
  0
ARC
  5
A12
330
A02
100
AcDbEntity
  8
Sketch
100
AcDbCircle
 10
8.148300252
 20
-0.418070015
 30
0.000000000
 40
0.500000000
100
AcDbArc
 50
180.000000000
 51
-90.000000000
  0
LINE
  5
A13
330
A02
100
AcDbEntity
  8
Sketch
100
AcDbLine
 10
8.148300252
 20
-0.918070015
 30
0.000000000
 11
8.348300252
 21
-0.918070015
 31
0.000000000
  0
ARC
  5
A14
330
A02
100
AcDbEntity
  8
Sketch
100
AcDbCircle
 10
8.348300252
 20
-0.418070015
 30
0.000000000
 40
0.500000000
100
AcDbArc
 50
-90.000000000
 51
-0.000000000
  0
LINE
  5
A15
330
A02
100
AcDbEntity
  8
Sketch
100
AcDbLine
 10
8.848300252
 20
-0.418070015
 30
0.000000000
 11
8.848300252
 21
2.831929985
 31
0.000000000
  0
LINE
  5
A16
330
A02
100
AcDbEntity
  8
Sketch
100
AcDbLine
 10
8.848300252
 20
2.831929985
 30
0.000000000
 11
29.348300252
 21
2.831929985
 31
0.000000000
  0
ARC
  5
A17
330
A02
100
AcDbEntity
  8
Sketch
100
AcDbCircle
 10
29.348300252
 20
4.831929985
 30
0.000000000
 40
2.000000000
100
AcDbArc
 50
-90.000000000
 51
-0.000000000
  0
LINE
  5
A18
330
A02
100
AcDbEntity
  8
Sketch
100
AcDbLine
 10
31.348300252
 20
4.831929985
 30
0.000000000
 11
31.348300252
 21
22.281929985
 31
0.000000000
  0
ARC
  5
A19
330
A02
100
AcDbEntity
  8
Sketch
100
AcDbCircle
 10
33.348300252
 20
22.281929985
 30
0.000000000
 40
2.000000000
100
AcDbArc
 50
90.000000000
 51
180.000000000
  0
LINE
  5
A1A
330
A02
100
AcDbEntity
  8
Sketch
100
AcDbLine
 10
33.348300252
 20
24.281929985
 30
0.000000000
 11
43.527239961
 21
24.281929985
 31
0.000000000
  0
ARC
  5
A1B
330
A02
100
AcDbEntity
  8
Sketch
100
AcDbCircle
 10
43.527239961
 20
22.281929985
 30
0.000000000
 40
2.000000000
100
AcDbArc
 50
50.000000000
 51
90.000000000
  0
LINE
  5
A1C
330
A02
100
AcDbEntity
  8
Sketch
100
AcDbLine
 10
44.812815180
 20
23.814018872
 30
0.000000000
 11
45.650875254
 21
23.110802973
 31
0.000000000
  0
ARC
  5
A1D
330
A02
100
AcDbEntity
  8
Sketch
100
AcDbCircle
 10
46.936450473
 20
24.642891859
 30
0.000000000
 40
2.000000000
100
AcDbArc
 50
-130.000000000
 51
-90.000000000
  0
LINE
  5
A1E
330
A02
100
AcDbEntity
  8
Sketch
100
AcDbLine
 10
46.936450473
 20
22.642891859
 30
0.000000000
 11
51.147901411
 21
22.642891859
 31
0.000000000
  0
ARC
  5
A1F
330
A02
100
AcDbEntity
  8
Sketch
100
AcDbCircle
 10
51.147901411
 20
24.642891859
 30
0.000000000
 40
2.000000000
100
AcDbArc
 50
-90.000000000
 51
-25.000000000
  0
LINE
  5
A20
330
A02
100
AcDbEntity
  8
Sketch
100
AcDbLine
 10
52.960516986
 20
23.797655336
 30
0.000000000
 11
53.813607424
 21
25.627113684
 31
0.000000000
  0
ARC
  5
A21
330
A02
100
AcDbEntity
  8
Sketch
100
AcDbCircle
 10
55.823300242
 20
23.429859487
 30
0.000000000
 40
2.977715774
100
AcDbArc
 50
-2.447231079
 51
132.447231079
  0
LINE
  5
A22
330
A02
100
AcDbEntity
  8
Sketch
100
AcDbLine
 10
57.782374292
 20
21.124052992
 30
0.000000000
 11
58.798300252
 21
23.302713245
 31
0.000000000
  0
ARC
  5
A23
330
A02
100
AcDbEntity
  8
Sketch
100
AcDbCircle
 10
58.786176838
 20
20.655972177
 30
0.000000000
 40
1.107573564
100
AcDbArc
 50
155.000000000
 51
-144.194228553
  0
LINE
  5
A24
330
A02
100
AcDbEntity
  8
Sketch
100
AcDbLine
 10
58.609305144
 20
19.007998036
 30
0.000000000
 11
57.887929259
 21
20.007998036
 31
0.000000000
  0
ARC
  5
A25
330
A02
100
AcDbEntity
  8
Sketch
100
AcDbCircle
 10
57.798300252
 20
18.422958665
 30
0.000000000
 40
1.000000000
100
AcDbArc
 50
0.000000000
 51
35.805771447
  0
LINE
  5
A26
330
A02
100
AcDbEntity
  8
Sketch
100
AcDbLine
 10
58.798300252
 20
18.422958665
 30
0.000000000
 11
58.798300252
 21
-8.577041335
 31
0.000000000
  0
ARC
  5
A27
330
A02
100
AcDbEntity
  8
Sketch
100
AcDbCircle
 10
56.798300252
 20
-8.577041335
 30
0.000000000
 40
2.000000000
100
AcDbArc
 50
-70.000000000
 51
0.000000000
  0
LINE
  5
A28
330
A02
100
AcDbEntity
  8
Sketch
100
AcDbLine
 10
57.482340539
 20
-10.456426577
 30
0.000000000
 11
39.183848205
 21
-17.116533119
 31
0.000000000
  0
ARC
  5
A29
330
A02
100
AcDbEntity
  8
Sketch
100
AcDbCircle
 10
37.473747488
 20
-12.418070015
 30
0.000000000
 40
5.000000000
100
AcDbArc
 50
-90.000000000
 51
-70.000000000
  0
LINE
  5
A2A
330
A02
100
AcDbEntity
  8
Sketch
100
AcDbLine
 10
37.473747488
 20
-17.418070015
 30
0.000000000
 11
29.855382391
 21
-17.418070015
 31
0.000000000
  0
ARC
  5
A2B
330
A02
100
AcDbEntity
  8
Sketch
100
AcDbCircle
 10
29.855382391
 20
-19.418070015
 30
0.000000000
 40
2.000000000
100
AcDbArc
 50
90.000000000
 51
180.000000000
  0
LINE
  5
A2C
330
A02
100
AcDbEntity
  8
Sketch
100
AcDbLine
 10
27.855382391
 20
-19.418070015
 30
0.000000000
 11
27.855382391
 21
-23.318070015
 31
0.000000000
  0
ARC
  5
A2D
330
A02
100
AcDbEntity
  8
Sketch
100
AcDbCircle
 10
25.855382391
 20
-23.318070015
 30
0.000000000
 40
2.000000000
100
AcDbArc
 50
-90.000000000
 51
0.000000000
  0
LINE
  5
A2E
330
A02
100
AcDbEntity
  8
Sketch
100
AcDbLine
 10
25.855382391
 20
-25.318070015
 30
0.000000000
 11
-24.544617609
 21
-25.318070015
 31
0.000000000
  0
ARC
  5
A2F
330
A02
100
AcDbEntity
  8
Sketch
100
AcDbCircle
 10
-24.544617609
 20
-23.318070015
 30
0.000000000
 40
2.000000000
100
AcDbArc
 50
180.000000000
 51
-90.000000000
  0
LINE
  5
A30
330
A02
100
AcDbEntity
  8
Sketch
100
AcDbLine
 10
-26.544617609
 20
-23.318070015
 30
0.000000000
 11
-26.544617609
 21
-19.418070015
 31
0.000000000
  0
ARC
  5
A31
330
A02
100
AcDbEntity
  8
Sketch
100
AcDbCircle
 10
-28.544617609
 20
-19.418070015
 30
0.000000000
 40
2.000000000
100
AcDbArc
 50
0.000000000
 51
90.000000000
  0
LINE
  5
A32
330
A02
100
AcDbEntity
  8
Sketch
100
AcDbLine
 10
-28.544617609
 20
-17.418070015
 30
0.000000000
 11
-35.738188406
 21
-17.418070015
 31
0.000000000
  0
ARC
  5
A33
330
A02
100
AcDbEntity
  8
Sketch
100
AcDbCircle
 10
-35.738188406
 20
-12.418070015
 30
0.000000000
 40
5.000000000
100
AcDbArc
 50
-108.324193512
 51
-90.000000000
  0
LINE
  5
A34
330
A02
100
AcDbEntity
  8
Sketch
100
AcDbLine
 10
-37.310155051
 20
-17.164534053
 30
0.000000000
 11
-55.680486406
 21
-11.080521214
 31
0.000000000
  0
ARC
  5
A35
330
A02
100
AcDbEntity
  8
Sketch
100
AcDbCircle
 10
-55.051699748
 20
-9.181935599
 30
0.000000000
 40
2.000000000
100
AcDbArc
 50
180.000000000
 51
-108.324193512
  0
LINE
  5
A36
330
A02
100
AcDbEntity
  8
Sketch
100
AcDbLine
 10
-57.051699748
 20
-9.181935599
 30
0.000000000
 11
-57.051699748
 21
17.254099099
 31
0.000000000
  0
ARC
  5
A37
330
A02
100
AcDbEntity
  8
Sketch
100
AcDbCircle
 10
-55.051699748
 20
17.254099099
 30
0.000000000
 40
2.000000000
100
AcDbArc
 50
156.534416649
 51
180.000000000
  0
LINE
  5
A38
330
A02
100
AcDbEntity
  8
Sketch
100
AcDbLine
 10
-56.886298610
 20
18.050495366
 30
0.000000000
 11
-56.417100886
 21
19.131351274
 31
0.000000000
  0
ARC
  5
A39
330
A02
100
AcDbEntity
  8
Sketch
100
AcDbCircle
 10
-58.251699748
 20
19.927747542
 30
0.000000000
 40
2.000000000
100
AcDbArc
 50
-23.465583351
 51
0.000000000
  0
LINE
  5
A3A
330
A02
100
AcDbEntity
  8
Sketch
100
AcDbLine
 10
-56.251699748
 20
19.927747542
 30
0.000000000
 11
-56.251699748
 21
20.927747542
 31
0.000000000
  0
ARC
  5
A3B
330
A02
100
AcDbEntity
  8
Sketch
100
AcDbCircle
 10
-58.251699748
 20
20.927747542
 30
0.000000000
 40
2.000000000
100
AcDbArc
 50
0.000000000
 51
25.000000000
  0
LINE
  5
A3C
330
A02
100
AcDbEntity
  8
Sketch
100
AcDbLine
 10
-56.905391832
 20
22.772984065
 30
0.000000000
 11
-56.439084174
 21
21.772984065
 31
0.000000000
  0
ARC
  5
A3D
330
A02
100
AcDbEntity
  8
Sketch
100
AcDbCircle
 10
-54.176699748
 20
23.428339361
 30
0.000000000
 40
2.806287771
100
AcDbArc
 50
36.494951710
 51
-166.494951710
  0
LINE
  5
A3E
330
A02
100
AcDbEntity
  8
Sketch
100
AcDbLine
 10
-51.920699003
 20
25.097384505
 30
0.000000000
 11
-50.676483439
 21
22.429155616
 31
0.000000000
  0
ARC
  5
A3F
330
A02
100
AcDbEntity
  8
Sketch
100
AcDbCircle
 10
-50.401699748
 20
22.557289356
 30
0.000000000
 40
0.303190257
100
AcDbArc
 50
-155.000000000
 51
-90.000000000
  0
LINE
  5
A40
330
A02
100
AcDbEntity
  8
Sketch
100
AcDbLine
 10
-45.012633361
 20
22.254099099
 30
0.000000000
 11
-50.401699748
 21
22.254099099
 31
0.000000000
  0
ARC
  5
A41
330
A02
100
AcDbEntity
  8
Sketch
100
AcDbCircle
 10
-45.012633361
 20
24.254099099
 30
0.000000000
 40
2.000000000
100
AcDbArc
 50
-90.000000000
 51
-36.344638516
  0
LINE
  5
A42
330
A02
100
AcDbEntity
  8
Sketch
100
AcDbLine
 10
-43.034994474
 20
23.567211763
 30
0.000000000
 11
-43.401699748
 21
23.068817321
 31
0.000000000
  0
ARC
  5
A43
330
A02
100
AcDbEntity
  8
Sketch
100
AcDbCircle
 10
-41.424060861
 20
22.381929985
 30
0.000000000
 40
2.000000000
100
AcDbArc
 50
90.000000000
 51
143.655361484
  0
LINE
  5
A44
330
A02
100
AcDbEntity
  8
Sketch
100
AcDbLine
 10
-30.401699748
 20
24.381929985
 30
0.000000000
 11
-41.424060861
 21
24.381929985
 31
0.000000000
  0
ARC
  5
A45
330
A02
100
AcDbEntity
  8
Sketch
100
AcDbCircle
 10
-30.401699748
 20
22.381929985
 30
0.000000000
 40
2.000000000
100
AcDbArc
 50
-0.000000000
 51
90.000000000
  0
CIRCLE
  5
A46
330
A02
100
AcDbEntity
  8
Sketch
100
AcDbCircle
 10
-54.176699748
 20
23.428339361
 30
0.000000000
 40
1.325000000
  0
CIRCLE
  5
A47
330
A02
100
AcDbEntity
  8
Sketch
100
AcDbCircle
 10
55.823300242
 20
23.429859487
 30
0.000000000
 40
1.325000000
  0
CIRCLE
  5
A48
330
A02
100
AcDbEntity
  8
Sketch
100
AcDbCircle
 10
-53.990500966
 20
-8.271113789
 30
0.000000000
 40
1.125000000
  0
CIRCLE
  5
A49
330
A02
100
AcDbEntity
  8
Sketch
100
AcDbCircle
 10
-46.323670479
 20
-10.884485229
 30
0.000000000
 40
1.125000000
  0
CIRCLE
  5
A4A
330
A02
100
AcDbEntity
  8
Sketch
100
AcDbCircle
 10
48.015590234
 20
-10.842026432
 30
0.000000000
 40
1.125000000
  0
CIRCLE
  5
A4B
330
A02
100
AcDbEntity
  8
Sketch
100
AcDbCircle
 10
55.712935483
 20
-8.319948695
 30
0.000000000
 40
1.125000000
  0
ENDSEC
  0
SECTION
  2
OBJECTS
  0
DICTIONARY
  5
F000
330
0
100
AcDbDictionary
  3
ACAD_GROUP
350
F001
  0
DICTIONARY
  5
F001
330
F000
100
AcDbDictionary
  0
ENDSEC
  0
EOF